# File created by Blade
# Date/Time:  Thu Sep 25 14:26:36 2014
# Frame Rate: 120.000 fps
#------------------------------------------------------
:FULLY-SPECIFIED
:DEGREES
2237
root 1.134330 33.114345 -4.122885 374.611504 -14.677787 365.913360
Spine -3.535711 8.110869 2.812796
Head -24.895560 -8.826909 -2.256095
LeftShoulder -4.809003 16.165511 14.427477
LeftArm 33.816747 45.432386 -68.588311
LeftForeArm 0.217934 -0.000000 23.699093
LeftHand -26.411316 -0.000000 3.640175
LeftHandThumb1 -26.253704 0.000000 33.147579
RightShoulder -13.736873 10.770251 -23.955208
RightArm 169.210767 -147.364107 264.586065
RightForeArm -17.203557 0.000000 40.417543
RightHand -4.931233 -0.000000 4.546073
RightHandThumb1 -24.326973 -0.000000 -32.862282
LeftUpLeg -25.036225 5.969602 -6.038731
LeftLeg 9.608470 -0.000000 -0.000000
LeftFoot -10.203013 5.187759 -20.941025
LeftToeBase -7.962151 -0.000000 0.000000
RightUpLeg -22.420240 -6.951442 -3.288597
RightLeg 14.522237 -0.000000 -0.000000
RightFoot -11.703662 -9.474178 -1.562422
RightToeBase 1.027728 -0.000000 -0.000000
2238
root 1.061198 33.111058 -4.122438 374.665558 -14.153462 365.800692
Spine -3.708277 8.170235 2.908493
Head -24.525355 -8.248033 -2.310422
LeftShoulder -4.807776 16.225491 14.423002
LeftArm 33.708573 45.633820 -68.435894
LeftForeArm -0.141865 -0.000000 23.172989
LeftHand -26.434004 -0.000000 3.424573
LeftHandThumb1 -26.253704 0.000000 33.147579
RightShoulder -13.789184 10.711446 -23.843224
RightArm 169.234680 -147.301293 264.648801
RightForeArm -17.113406 -0.000000 40.395065
RightHand -4.885671 -0.000000 4.948381
RightHandThumb1 -24.326973 -0.000000 -32.862282
LeftUpLeg -24.596046 4.843301 -5.611264
LeftLeg 8.289724 -0.000000 -0.000000
LeftFoot -10.318319 5.921538 -21.227114
LeftToeBase -7.890836 -0.000000 0.000000
RightUpLeg -22.184489 -7.126371 -3.033203
RightLeg 14.259040 -0.000000 -0.000000
RightFoot -11.752617 -9.605356 -1.533159
RightToeBase 1.056847 -0.000000 -0.000000
2239
root 0.998171 33.109719 -4.119221 374.706401 -13.713879 365.700002
Spine -3.861046 8.263014 2.998720
Head -24.208794 -7.682939 -2.381024
LeftShoulder -4.928026 16.420935 14.300498
LeftArm 34.082774 46.172009 -67.598373
LeftForeArm -0.685665 -0.000000 22.822546
LeftHand -26.302875 -0.000000 3.497320
LeftHandThumb1 -26.253704 0.000000 33.147579
RightShoulder -13.787111 10.721098 -23.744798
RightArm 169.206919 -147.243188 264.764878
RightForeArm -17.215778 -0.000000 40.274226
RightHand -4.780607 -0.000000 5.004607
RightHandThumb1 -24.326973 -0.000000 -32.862282
LeftUpLeg -24.082593 3.572610 -5.110028
LeftLeg 6.947779 -0.000000 -0.000000
LeftFoot -10.530303 7.015323 -21.708973
LeftToeBase -7.609697 -0.000000 0.000000
RightUpLeg -21.942323 -7.239529 -2.820859
RightLeg 13.955620 -0.000000 -0.000000
RightFoot -11.784413 -9.818101 -1.688630
RightToeBase 1.309740 -0.000000 -0.000000
2240
root 0.941010 33.106776 -4.114505 374.748262 -13.247869 365.635402
Spine -4.038373 8.336655 3.035776
Head -23.861631 -7.129665 -2.386436
LeftShoulder -4.956702 16.510628 14.309616
LeftArm 33.985573 46.256810 -67.533411
LeftForeArm -0.658919 -0.000000 22.283259
LeftHand -26.094581 -0.000000 3.132451
LeftHandThumb1 -26.253704 0.000000 33.147579
RightShoulder -13.844665 10.687783 -23.639900
RightArm 169.226129 -147.123248 264.903624
RightForeArm -17.111145 -0.000000 40.112807
RightHand -4.859524 -0.000000 4.934100
RightHandThumb1 -24.326973 -0.000000 -32.862282
LeftUpLeg -23.724123 2.593225 -4.789465
LeftLeg 5.939856 -0.000000 -0.000000
LeftFoot -10.876142 8.060653 -22.153529
LeftToeBase -6.881936 -0.000000 0.000000
RightUpLeg -21.716475 -7.381242 -2.647162
RightLeg 13.677645 -0.000000 -0.000000
RightFoot -11.845553 -9.973830 -1.682607
RightToeBase 1.522825 -0.000000 -0.000000
2241
root 0.867923 33.103559 -4.110322 374.778860 -12.766205 365.443757
Spine -4.162034 8.419189 3.194551
Head -23.568447 -6.673906 -2.382240
LeftShoulder -4.994404 16.558787 14.313898
LeftArm 33.718982 46.268870 -67.651191
LeftForeArm -0.363353 0.000000 21.890363
LeftHand -26.020575 -0.000000 2.978651
LeftHandThumb1 -26.253704 0.000000 33.147579
RightShoulder -13.881909 10.636458 -23.494274
RightArm 169.268984 -147.126375 265.026613
RightForeArm -17.105677 -0.000000 39.909819
RightHand -4.722255 -0.000000 5.108166
RightHandThumb1 -24.326973 -0.000000 -32.862282
LeftUpLeg -23.472972 2.115539 -4.499539
LeftLeg 5.306904 -0.000000 -0.000000
LeftFoot -11.275367 8.945845 -22.355143
LeftToeBase -7.155298 -0.000000 0.000000
RightUpLeg -21.407062 -7.463867 -2.331046
RightLeg 13.325894 -0.000000 -0.000000
RightFoot -11.836720 -10.128363 -1.608654
RightToeBase 1.679558 -0.000000 -0.000000
2242
root 0.790500 33.100705 -4.115707 374.868955 -12.240459 365.209472
Spine -4.329005 8.466561 3.400063
Head -23.305815 -6.286525 -2.389332
LeftShoulder -5.022613 16.609084 14.313732
LeftArm 33.477693 46.269397 -67.667622
LeftForeArm -0.147801 -0.000000 21.644268
LeftHand -25.825504 -0.000000 2.313238
LeftHandThumb1 -26.253704 0.000000 33.147579
RightShoulder -13.879876 10.651741 -23.381485
RightArm 169.222626 -147.141666 265.238905
RightForeArm -17.130554 -0.000000 39.664827
RightHand -4.650722 -0.000000 5.318619
RightHandThumb1 -24.326973 -0.000000 -32.862282
LeftUpLeg -23.395240 1.860939 -4.243985
LeftLeg 4.989428 -0.000000 -0.000000
LeftFoot -11.738168 9.754885 -22.416878
LeftToeBase -6.953838 -0.000000 0.000000
RightUpLeg -21.170121 -7.839838 -1.872643
RightLeg 12.948301 -0.000000 -0.000000
RightFoot -11.749144 -10.113701 -1.725250
RightToeBase 1.704779 -0.000000 -0.000000
2243
root 0.722608 33.097434 -4.118294 374.937484 -11.707210 365.020278
Spine -4.486241 8.510366 3.560478
Head -23.055852 -5.926055 -2.393199
LeftShoulder -5.070414 16.718324 14.308151
LeftArm 33.334977 46.275230 -67.649990
LeftForeArm 0.154831 -0.000000 21.456395
LeftHand -25.838026 -0.000000 2.093768
LeftHandThumb1 -26.253704 0.000000 33.147579
RightShoulder -13.961537 10.619412 -23.284419
RightArm 169.224048 -147.014045 265.498554
RightForeArm -16.774264 -0.000000 39.417514
RightHand -4.737516 -0.000000 5.127310
RightHandThumb1 -24.326973 -0.000000 -32.862282
LeftUpLeg -23.336533 1.738922 -4.080350
LeftLeg 4.807514 -0.000000 -0.000000
LeftFoot -12.104573 10.287492 -22.828650
LeftToeBase -6.902915 -0.000000 0.000000
RightUpLeg -20.906209 -8.065591 -1.520007
RightLeg 12.554308 -0.000000 -0.000000
RightFoot -11.711711 -10.219828 -1.702818
RightToeBase 1.740336 -0.000000 -0.000000
